# xmcd
#
# Track frame offsets: 
#        150
#        29479
#        46893
#        73344
#        99924
#        129849
#        158058
#        188288
#        220875
#        225563
#        247401
#        264604
#        281496
#        307072
#
# Disc length: 4386 seconds
#
# Revision: 0
# Processed by: cddbd v1.5.2PL0 Copyright (c) Steve Scherf et al.
# Submitted via: ExactAudioCopy v0.99pb1
#
DISCID=c511200e
DTITLE=Cowboy Junkies - Frankfurt Germany 2004 2
DYEAR=1900
DGENRE=
TTITLE0=Simon Keeper
TTITLE1=Townes' Blues
TTITLE2=From Hunting Ground to City
TTITLE3=Band Intro
TTITLE4=Crescent Moon
TTITLE5=Isn't It a Pity [George Harrison cover]
TTITLE6=Cause Cheap Is How I Feel
TTITLE7=Powderfinger [Neil Young cover]
TTITLE8=Intro Mountain Stage
TTITLE9=Hard to Explain
TTITLE10=This Street That Man This Life
TTITLE11=Small Swift Birds
TTITLE12=The Last Spike
TTITLE13=I'm so Open
EXTD=
EXTT0=
EXTT1=
EXTT2=
EXTT3=
EXTT4=
EXTT5=
EXTT6=
EXTT7=
EXTT8=
EXTT9=
EXTT10=
EXTT11=
EXTT12=
EXTT13=
PLAYORDER=
